<svg xmlns="http://www.w3.org/2000/svg" xmlns:xlink="http://www.w3.org/1999/xlink" width="226px" height="37px" viewBox="0 0 226 37" version="1.1">
                <!-- Generator: Sketch 41.2 (35397) - http://www.bohemiancoding.com/sketch -->
                <title>Communitech_CMYK</title>
                <desc>Created with Sketch.</desc>
                <defs>
                    <polygon id="path-1" points="0.488558824 36.9668657 42.8508186 36.9668657 42.8508186 0.289925373 0.488558824 0.289925373"/>
                </defs>
                <g id="Page-1" stroke="none" stroke-width="1" fill="none" fill-rule="evenodd">
                    <g id="Communitech---SignIn-Splash" transform="translate(-166.000000, -79.000000)">
                        <g id="Navigation" transform="translate(0.000000, 38.000000)">
                            <g id="Communitech_CMYK" transform="translate(166.000000, 41.000000)">
                                <g id="Group-3" transform="translate(137.372549, 0.000000)">
                                    <mask id="mask-2" fill="white">
                                        <use xlink:href="#path-1"/>
                                    </mask>
                                    <g id="Clip-2"/>
                                    <path d="M0.488558824,0.289925373 L5.23843627,8.52601493 L5.23843627,5.52956716 L11.5974559,5.52956716 L11.5974559,19.5525672 L21.6577794,37 L32.1313284,18.858403 L32.1313284,5.53067164 L39.8258529,5.53067164 L42.8508186,0.289925373 L0.488558824,0.289925373 Z M13.2968873,5.53067164 L30.8528775,5.53067164 L30.8528775,11.4810448 L25.1762892,11.4810448 L25.1762892,27.2971642 L18.8178235,27.2971642 L18.8161618,11.4810448 L13.2968873,11.4810448 L13.2968873,5.53067164 L13.2968873,5.53067164 Z" id="Fill-1" fill="#0072AD" mask="url(#mask-2)"/>
                                </g>
                                <path d="M12.4820686,19.1455672 L16.1152402,19.1455672 L16.1152402,19.7994179 C16.1152402,22.4424328 15.6316667,24.149403 14.6628578,24.924194 C13.6946029,25.6973284 11.5536961,26.0855522 8.23958333,26.0855522 C4.47790196,26.0855522 2.16472549,25.4720149 1.29894608,24.246597 C0.432058824,23.0206269 0,19.7436418 0,14.4156418 C0,11.2772687 0.585495098,9.21465672 1.7592549,8.22559701 C2.93246078,7.23708955 5.38577941,6.74173134 9.11921078,6.74173134 C11.8373039,6.74173134 13.6536127,7.15038806 14.5648137,7.96549254 C15.4782304,8.78059701 15.9341078,10.4003134 15.9341078,12.8218806 L15.947402,13.2542836 L12.3142304,13.2542836 L12.3142304,12.7644478 C12.3142304,11.5169403 12.0810294,10.7172985 11.6118578,10.3688358 C11.1437941,10.0192687 10.0719559,9.84310448 8.40132843,9.84310448 C6.16293137,9.84310448 4.8180098,10.1164627 4.36877941,10.6642836 C3.91788725,11.2126567 3.6929951,12.8318209 3.6929951,15.5311642 C3.6929951,19.1648955 3.89462255,21.3153134 4.29953922,21.9829701 C4.70390196,22.6506269 6.01171078,22.9836269 8.22518137,22.9836269 C10.0182255,22.9836269 11.1820147,22.8002836 11.716549,22.4302836 C12.2516373,22.0613881 12.5191814,21.2490448 12.5191814,19.9960149 L12.4820686,19.1455672" id="Fill-4" fill="#1A1918"/>
                                <path d="M28.885902,6.74173134 C32.3445882,6.74173134 34.5730147,7.31661194 35.56675,8.46195522 C36.562701,9.60895522 37.0595686,12.1735522 37.0595686,16.1568507 C37.0595686,20.509597 36.5604853,23.2531194 35.5589951,24.3857612 C34.5602745,25.518403 32.1401912,26.0855522 28.2998529,26.0855522 C24.8411667,26.0855522 22.6033235,25.5261343 21.5896471,24.406194 C20.5765245,23.2879104 20.0696863,20.8254776 20.0696863,17.0183433 C20.0696863,12.4883284 20.5665539,9.64429851 21.5630588,8.48404478 C22.5567941,7.32379104 24.9990343,6.74173134 28.885902,6.74173134 M28.6078333,9.84310448 C26.1916275,9.84310448 24.7802353,10.1545672 24.3742108,10.7758358 C23.9665245,11.396 23.7632353,13.5464179 23.7632353,17.2270896 C23.7632353,19.9523881 24.0014216,21.5936418 24.4777941,22.1497463 C24.9536127,22.7052985 26.3583578,22.9836269 28.6898137,22.9836269 C30.9187941,22.9836269 32.2554069,22.6721642 32.699098,22.0453731 C33.1438971,21.4191343 33.3660196,19.5216418 33.3660196,16.3512388 C33.3660196,13.1714478 33.1560833,11.2916269 32.734549,10.7123284 C32.3130147,10.1341343 30.9376275,9.84310448 28.6078333,9.84310448" id="Fill-5" fill="#1A1918"/>
                                <path d="M64.41,6.89691045 L64.41,25.9303731 L60.794,25.9303731 L60.794,15.5527015 C60.794,14.7243433 60.8172647,13.7866418 60.864348,12.7357313 L61.0028284,9.90661194 L60.8914902,9.90661194 L60.4588775,11.2314328 L60.038451,12.5534925 C59.6473824,13.7446716 59.3438333,14.6221791 59.1294657,15.1898806 L54.9307402,25.9303731 L51.6282598,25.9303731 L47.3885441,15.2738209 C47.1547892,14.6884478 46.8462549,13.8087313 46.4651569,12.6374328 L46.0314363,11.3131642 L45.5971618,10.0054627 L45.4852696,10.0054627 L45.5561716,11.3838507 L45.6248578,12.7771493 C45.6813578,13.8562239 45.7090539,14.7801194 45.7090539,15.5527015 L45.7090539,25.9303731 L42.0936078,25.9303731 L42.0936078,6.89691045 L47.9906569,6.89691045 L51.4050294,15.7051194 C51.6382304,16.3197612 51.9456569,17.1978209 52.3284167,18.3409552 L52.7488431,19.6657761 L53.1814559,20.9784478 L53.30775,20.9784478 L53.7132206,19.6657761 L54.1336471,18.3553134 C54.4787402,17.2502836 54.7778578,16.3760896 55.0282304,15.7343881 L58.3872108,6.89691045 L64.41,6.89691045" id="Fill-6" fill="#1A1918"/>
                                <path d="M92.6383971,6.89691045 L92.6383971,25.9303731 L89.0223971,25.9303731 L89.0223971,15.5527015 C89.0223971,14.7243433 89.0456618,13.7866418 89.093299,12.7357313 L89.1625392,11.3131642 L89.2317794,9.90661194 L89.1193333,9.90661194 L88.6872745,11.2314328 L88.267402,12.5534925 C87.8757794,13.7446716 87.5716765,14.6221791 87.3584167,15.1898806 L83.1591373,25.9303731 L79.8566569,25.9303731 L75.6163873,15.2738209 C75.3837402,14.6884478 75.0752059,13.8087313 74.693,12.6374328 L74.2592794,11.3131642 L73.8255588,10.0054627 L73.7142206,10.0054627 L73.7840147,11.3838507 L73.8538088,12.7771493 C73.9097549,13.8562239 73.937451,14.7801194 73.937451,15.5527015 L73.937451,25.9303731 L70.3220049,25.9303731 L70.3220049,6.89691045 L76.2196078,6.89691045 L79.6334265,15.7051194 C79.8666275,16.3197612 80.1740539,17.1978209 80.5568137,18.3409552 L80.9772402,19.6657761 L81.4098529,20.9784478 L81.5355931,20.9784478 L81.9416176,19.6657761 L82.3620441,18.3553134 C82.7076912,17.2502836 83.0062549,16.3760896 83.2560735,15.7343881 L86.6156078,6.89691045 L92.6383971,6.89691045" id="Fill-7" fill="#1A1918"/>
                                <path d="M110.835828,6.89691045 L114.451828,6.89691045 L114.451828,19.5553284 C114.451828,22.2016567 113.941113,23.9500448 112.918574,24.8032537 C111.89825,25.6586716 109.808858,26.0855522 106.653721,26.0855522 C103.32299,26.0855522 101.139431,25.6813134 100.103044,24.8744925 C99.0677647,24.0676716 98.549848,22.3645672 98.549848,19.7646269 L98.549848,6.89691045 L102.166402,6.89691045 L102.166402,19.7646269 C102.166402,21.1606866 102.41899,22.0475821 102.924721,22.4225522 C103.428235,22.7958657 104.615843,22.9836269 106.486436,22.9836269 C108.404113,22.9836269 109.608892,22.7936567 110.100221,22.4153731 C110.590441,22.0354328 110.835828,21.1060149 110.835828,19.6249104 L110.835828,6.89691045" id="Fill-8" fill="#1A1918"/>
                                <path d="M138.041132,6.89691045 L138.041132,25.9303731 L131.910882,25.9303731 L126.464725,15.4831194 C126.196074,14.961806 125.773431,14.0506119 125.194583,12.7495373 L124.57973,11.3838507 L123.979833,10.0192687 L123.840245,10.0192687 L123.896191,11.2722985 L123.938843,12.5120746 L123.965985,15.008194 L123.965985,25.9303731 L120.350539,25.9303731 L120.350539,6.89691045 L126.479681,6.89691045 L131.437279,16.5423134 C131.874324,17.3993881 132.380608,18.4359403 132.958348,19.6530746 L133.685093,21.201 L134.411284,22.7638358 L134.536471,22.7638358 L134.493265,21.5356567 L134.452275,20.3074776 L134.424025,17.8538806 L134.424025,6.89691045 L138.041132,6.89691045" id="Fill-9" fill="#1A1918"/>
                                <polygon id="Fill-10" fill="#1A1918" points="143.982495 25.9303731 147.597941 25.9303731 147.597941 6.89691045 143.982495 6.89691045"/>
                                <polyline id="Fill-11" fill="#1A1918" points="161.177882 10.1142537 161.177882 25.9303731 157.562436 25.9303731 157.562436 10.1142537 152.0415 10.1142537 152.0415 6.89691045 166.853917 6.89691045 166.853917 10.1142537 161.177882 10.1142537"/>
                                <polyline id="Fill-12" fill="#1A1918" points="174.491387 9.92097015 174.491387 14.8430746 183.472118 14.8430746 183.472118 17.5175672 174.491387 17.5175672 174.491387 22.9068657 184.017176 22.9068657 184.017176 25.9303731 170.875941 25.9303731 170.875941 6.89691045 183.939074 6.89691045 183.939074 9.92097015 174.491387 9.92097015"/>
                                <path d="M201.076299,19.1455672 L204.709471,19.1455672 L204.709471,19.7994179 C204.709471,22.4424328 204.224789,24.149403 203.257642,24.924194 C202.288279,25.6973284 200.147926,26.0855522 196.833814,26.0855522 C193.072132,26.0855522 190.758402,25.4720149 189.893176,24.246597 C189.026289,23.0206269 188.593676,19.7436418 188.593676,14.4156418 C188.593676,11.2772687 189.179172,9.21465672 190.352931,8.22559701 C191.526691,7.23708955 193.979456,6.74173134 197.713441,6.74173134 C200.430426,6.74173134 202.247843,7.15038806 203.157936,7.96549254 C204.072461,8.78059701 204.527784,10.4003134 204.527784,12.8218806 L204.541632,13.2542836 L200.909015,13.2542836 L200.909015,12.7644478 C200.909015,11.5169403 200.67526,10.7172985 200.206642,10.3688358 C199.736917,10.0192687 198.666186,9.84310448 196.995559,9.84310448 C194.757162,9.84310448 193.41224,10.1164627 192.962456,10.6642836 C192.51101,11.2126567 192.286672,12.8318209 192.286672,15.5311642 C192.286672,19.1648955 192.488299,21.3153134 192.89377,21.9829701 C193.297578,22.6506269 194.605941,22.9836269 196.819412,22.9836269 C198.612456,22.9836269 199.776245,22.8002836 200.311887,22.4302836 C200.845314,22.0613881 201.113412,21.2490448 201.113412,19.9960149 L201.076299,19.1455672" id="Fill-13" fill="#1A1918"/>
                                <polyline id="Fill-14" fill="#1A1918" points="225.73024 6.89691045 225.73024 25.9303731 222.114794 25.9303731 222.114794 17.711403 213.172284 17.711403 213.172284 25.9303731 209.557392 25.9303731 209.557392 6.89691045 213.172284 6.89691045 213.172284 14.6884478 222.114794 14.6884478 222.114794 6.89691045 225.73024 6.89691045"/>
                                </g>
                            </g>
                        </g>
                    </g>
                </svg>