<svg xmlns="http://www.w3.org/2000/svg" width="1440" height="900"><path d="M541,631L221,613L526,950Z" fill="#414345" stroke="#414345" stroke-width="1.51"/><path d="M221,613L206,973L526,950Z" fill="#424445" stroke="#424445" stroke-width="1.51"/><path d="M221,613L-124,626L206,973Z" fill="#3d4042" stroke="#3d4042" stroke-width="1.51"/><path d="M221,613L198,290L-124,626Z" fill="#3a3c3f" stroke="#3a3c3f" stroke-width="1.51"/><path d="M542,265L198,290L221,613Z" fill="#3a3d3f" stroke="#3a3d3f" stroke-width="1.51"/><path d="M526,950L872,986L541,631Z" fill="#464749" stroke="#464749" stroke-width="1.51"/><path d="M206,973L527,1296L526,950Z" fill="#464849" stroke="#464849" stroke-width="1.51"/><path d="M527,1296L872,986L526,950Z" fill="#494b4b" stroke="#494b4b" stroke-width="1.51"/><path d="M-124,626L-140,964L206,973Z" fill="#3e4042" stroke="#3e4042" stroke-width="1.51"/><path d="M206,973L196,1312L527,1296Z" fill="#47494a" stroke="#47494a" stroke-width="1.51"/><path d="M541,631L542,265L221,613Z" fill="#3e4041" stroke="#3e4041" stroke-width="1.51"/><path d="M882,268L542,265L541,631Z" fill="#3e4042" stroke="#3e4042" stroke-width="1.51"/><path d="M872,986L903,637L541,631Z" fill="#454748" stroke="#454748" stroke-width="1.51"/><path d="M-140,964L196,1312L206,973Z" fill="#434546" stroke="#434546" stroke-width="1.51"/><path d="M903,637L882,268L541,631Z" fill="#424445" stroke="#424445" stroke-width="1.51"/><path d="M198,290L-130,254L-124,626Z" fill="#36393b" stroke="#36393b" stroke-width="1.51"/><path d="M-124,626L-479,611L-140,964Z" fill="#393c3e" stroke="#393c3e" stroke-width="1.51"/><path d="M190,-66L-130,254L198,290Z" fill="#343739" stroke="#343739" stroke-width="1.51"/><path d="M190,-66L198,290L542,265Z" fill="#373a3c" stroke="#373a3c" stroke-width="1.51"/><path d="M1246,953L1247,621L903,637Z" fill="#4a4b4c" stroke="#4a4b4c" stroke-width="1.51"/><path d="M527,1296L893,1293L872,986Z" fill="#4c4e4f" stroke="#4c4e4f" stroke-width="1.51"/><path d="M558,1666L893,1293L527,1296Z" fill="#4f5051" stroke="#4f5051" stroke-width="1.51"/><path d="M196,1312L204,1650L527,1296Z" fill="#4b4c4d" stroke="#4b4c4d" stroke-width="1.51"/><path d="M-140,964L-124,1329L196,1312Z" fill="#434547" stroke="#434547" stroke-width="1.51"/><path d="M-130,254L-479,611L-124,626Z" fill="#36393b" stroke="#36393b" stroke-width="1.51"/><path d="M-140,964L-512,1315L-124,1329Z" fill="#414245" stroke="#414245" stroke-width="1.51"/><path d="M559,-68L190,-66L542,265Z" fill="#36393b" stroke="#36393b" stroke-width="1.51"/><path d="M882,268L559,-68L542,265Z" fill="#3b3d3f" stroke="#3b3d3f" stroke-width="1.51"/><path d="M-124,1329L204,1650L196,1312Z" fill="#484a4b" stroke="#484a4b" stroke-width="1.51"/><path d="M903,637L1227,283L882,268Z" fill="#434546" stroke="#434546" stroke-width="1.51"/><path d="M882,268L893,-91L559,-68Z" fill="#3a3d3f" stroke="#3a3d3f" stroke-width="1.51"/><path d="M1246,953L903,637L872,986Z" fill="#4a4c4c" stroke="#4a4c4c" stroke-width="1.51"/><path d="M893,1293L1246,953L872,986Z" fill="#4d4f4f" stroke="#4d4f4f" stroke-width="1.51"/><path d="M-479,611L-509,948L-140,964Z" fill="#3a3c3e" stroke="#3a3c3e" stroke-width="1.51"/><path d="M204,1650L558,1666L527,1296Z" fill="#4d4f4f" stroke="#4d4f4f" stroke-width="1.51"/><path d="M893,1293L1239,1333L1246,953Z" fill="#515252" stroke="#515252" stroke-width="1.51"/><path d="M1247,621L1227,283L903,637Z" fill="#464749" stroke="#464749" stroke-width="1.51"/><path d="M-479,611L-483,275L-509,948Z" fill="#35373a" stroke="#35373a" stroke-width="1.51"/><path d="M-130,254L-483,275L-479,611Z" fill="#333538" stroke="#333538" stroke-width="1.51"/><path d="M-485,-74L-483,275L-130,254Z" fill="#2f3235" stroke="#2f3235" stroke-width="1.51"/><path d="M190,-66L-134,-77L-130,254Z" fill="#313437" stroke="#313437" stroke-width="1.51"/><path d="M-152,-392L-134,-77L190,-66Z" fill="#2e3134" stroke="#2e3134" stroke-width="1.51"/><path d="M559,-68L215,-438L190,-66Z" fill="#323537" stroke="#323537" stroke-width="1.51"/><path d="M1230,-55L893,-91L882,268Z" fill="#3d3f41" stroke="#3d3f41" stroke-width="1.51"/><path d="M204,1650L-137,1668L558,1666Z" fill="#4a4c4d" stroke="#4a4c4d" stroke-width="1.51"/><path d="M-124,1329L-137,1668L204,1650Z" fill="#48494a" stroke="#48494a" stroke-width="1.51"/><path d="M-475,1655L-137,1668L-124,1329Z" fill="#454748" stroke="#454748" stroke-width="1.51"/><path d="M1216,1654L1239,1333L893,1293Z" fill="#555555" stroke="#555555" stroke-width="1.51"/><path d="M558,1666L871,1683L893,1293Z" fill="#525353" stroke="#525353" stroke-width="1.51"/><path d="M-137,1668L871,1683L558,1666Z" fill="#4d4f4f" stroke="#4d4f4f" stroke-width="1.51"/><path d="M-509,948L-512,1315L-140,964Z" fill="#3d3f41" stroke="#3d3f41" stroke-width="1.51"/><path d="M1227,283L1230,-55L882,268Z" fill="#404244" stroke="#404244" stroke-width="1.51"/><path d="M1585,256L1230,-55L1227,283Z" fill="#434546" stroke="#434546" stroke-width="1.51"/><path d="M1247,621L1572,616L1227,283Z" fill="#484a4b" stroke="#484a4b" stroke-width="1.51"/><path d="M1246,953L1572,616L1247,621Z" fill="#4c4e4e" stroke="#4c4e4e" stroke-width="1.51"/><path d="M1596,992L1572,616L1246,953Z" fill="#4f5051" stroke="#4f5051" stroke-width="1.51"/><path d="M-483,275L-485,-74L-509,948Z" fill="#313437" stroke="#313437" stroke-width="1.51"/><path d="M-134,-77L-485,-74L-130,254Z" fill="#2e3135" stroke="#2e3135" stroke-width="1.51"/><path d="M-152,-392L-485,-74L-134,-77Z" fill="#2b2e32" stroke="#2b2e32" stroke-width="1.51"/><path d="M871,1683L1216,1654L893,1293Z" fill="#545555" stroke="#545555" stroke-width="1.51"/><path d="M1565,1318L1596,992L1246,953Z" fill="#535455" stroke="#535455" stroke-width="1.51"/><path d="M-512,1315L-475,1655L-124,1329Z" fill="#434546" stroke="#434546" stroke-width="1.51"/><path d="M893,-91L565,-424L559,-68Z" fill="#36383b" stroke="#36383b" stroke-width="1.51"/><path d="M896,-409L565,-424L893,-91Z" fill="#35383a" stroke="#35383a" stroke-width="1.51"/><path d="M565,-424L215,-438L559,-68Z" fill="#313437" stroke="#313437" stroke-width="1.51"/><path d="M1565,1318L1246,953L1239,1333Z" fill="#535455" stroke="#535455" stroke-width="1.51"/><path d="M215,-438L-152,-392L190,-66Z" fill="#2d3133" stroke="#2d3133" stroke-width="1.51"/><path d="M1228,-414L896,-409L893,-91Z" fill="#383b3d" stroke="#383b3d" stroke-width="1.51"/><path d="M1582,1641L1565,1318L1239,1333Z" fill="#595959" stroke="#595959" stroke-width="1.51"/><path d="M1230,-55L1228,-414L893,-91Z" fill="#3b3d3f" stroke="#3b3d3f" stroke-width="1.51"/><path d="M1572,616L1585,256L1227,283Z" fill="#48494a" stroke="#48494a" stroke-width="1.51"/><path d="M1920,279L1585,256L1572,616Z" fill="#4b4c4d" stroke="#4b4c4d" stroke-width="1.51"/><path d="M1585,256L1580,-48L1230,-55Z" fill="#434546" stroke="#434546" stroke-width="1.51"/><path d="M215,-438L-496,-403L-152,-392Z" fill="#292d30" stroke="#292d30" stroke-width="1.51"/><path d="M-152,-392L-496,-403L-485,-74Z" fill="#282c2f" stroke="#282c2f" stroke-width="1.51"/><path d="M-485,-74L-496,-403L-509,948Z" fill="#2e3134" stroke="#2e3134" stroke-width="1.51"/><path d="M896,-409L1228,-414L565,-424Z" fill="#35383a" stroke="#35383a" stroke-width="1.51"/><path d="M565,-424L1569,-432L215,-438Z" fill="#343639" stroke="#343639" stroke-width="1.51"/><path d="M1569,-432L1228,-414L1230,-55Z" fill="#3c3e40" stroke="#3c3e40" stroke-width="1.51"/><path d="M1940,1677L1582,1641L1216,1654Z" fill="#5b5c5b" stroke="#5b5c5b" stroke-width="1.51"/><path d="M1216,1654L1582,1641L1239,1333Z" fill="#585959" stroke="#585959" stroke-width="1.51"/><path d="M1925,1291L1937,976L1596,992Z" fill="#585858" stroke="#585858" stroke-width="1.51"/><path d="M1925,1291L1596,992L1565,1318Z" fill="#585858" stroke="#585858" stroke-width="1.51"/><path d="M1596,992L1937,976L1572,616Z" fill="#525453" stroke="#525453" stroke-width="1.51"/><path d="M1585,256L1906,-84L1580,-48Z" fill="#464748" stroke="#464748" stroke-width="1.51"/><path d="M1937,976L1945,602L1572,616Z" fill="#525353" stroke="#525353" stroke-width="1.51"/><path d="M1945,602L1920,279L1572,616Z" fill="#4e4f50" stroke="#4e4f50" stroke-width="1.51"/><path d="M1580,-48L1569,-432L1230,-55Z" fill="#3f4143" stroke="#3f4143" stroke-width="1.51"/><path d="M1582,1641L1925,1291L1565,1318Z" fill="#5c5c5b" stroke="#5c5c5b" stroke-width="1.51"/><path d="M1228,-414L1569,-432L565,-424Z" fill="#383a3c" stroke="#383a3c" stroke-width="1.51"/><path d="M1906,-84L1569,-432L1580,-48Z" fill="#424445" stroke="#424445" stroke-width="1.51"/><path d="M1920,279L1906,-84L1585,256Z" fill="#494a4b" stroke="#494a4b" stroke-width="1.51"/><path d="M1926,-409L1906,-84L1920,279Z" fill="#464849" stroke="#464849" stroke-width="1.51"/><path d="M1582,1641L1940,1677L1925,1291Z" fill="#5e5e5e" stroke="#5e5e5e" stroke-width="1.51"/><path d="M1925,1291L1940,1677L1937,976Z" fill="#5d5d5c" stroke="#5d5d5c" stroke-width="1.51"/><path d="M1937,976L1940,1677L1945,602Z" fill="#59595a" stroke="#59595a" stroke-width="1.51"/><path d="M871,1683L1940,1677L1216,1654Z" fill="#585959" stroke="#585959" stroke-width="1.51"/><path d="M1945,602L1926,-409L1920,279Z" fill="#4a4c4c" stroke="#4a4c4c" stroke-width="1.51"/><path d="M1906,-84L1926,-409L1569,-432Z" fill="#414345" stroke="#414345" stroke-width="1.51"/></svg>