<svg xmlns="http://www.w3.org/2000/svg" width="1440" height="900"><path d="M680,553L962,662L1082,409Z" fill="#444648" stroke="#444648" stroke-width="1.51"/><path d="M1082,409L751,166L680,553Z" fill="#404244" stroke="#404244" stroke-width="1.51"/><path d="M1082,409L1288,53L751,166Z" fill="#404244" stroke="#404244" stroke-width="1.51"/><path d="M962,662L1218,478L1082,409Z" fill="#454749" stroke="#454749" stroke-width="1.51"/><path d="M751,166L576,221L680,553Z" fill="#3d3f41" stroke="#3d3f41" stroke-width="1.51"/><path d="M637,953L907,983L962,662Z" fill="#484a4b" stroke="#484a4b" stroke-width="1.51"/><path d="M962,662L1073,1104L1218,478Z" fill="#494b4c" stroke="#494b4c" stroke-width="1.51"/><path d="M151,633L637,953L680,553Z" fill="#424345" stroke="#424345" stroke-width="1.51"/><path d="M680,553L637,953L962,662Z" fill="#454748" stroke="#454748" stroke-width="1.51"/><path d="M1218,478L1288,53L1082,409Z" fill="#444547" stroke="#444547" stroke-width="1.51"/><path d="M751,166L520,-58L576,221Z" fill="#393c3e" stroke="#393c3e" stroke-width="1.51"/><path d="M576,221L151,633L680,553Z" fill="#3d4042" stroke="#3d4042" stroke-width="1.51"/><path d="M745,-165L520,-58L751,166Z" fill="#383a3d" stroke="#383a3d" stroke-width="1.51"/><path d="M1288,53L745,-165L751,166Z" fill="#3b3e40" stroke="#3b3e40" stroke-width="1.51"/><path d="M520,-58L318,127L576,221Z" fill="#373a3c" stroke="#373a3c" stroke-width="1.51"/><path d="M637,953L889,1128L907,983Z" fill="#4a4c4d" stroke="#4a4c4d" stroke-width="1.51"/><path d="M907,983L1073,1104L962,662Z" fill="#4b4c4d" stroke="#4b4c4d" stroke-width="1.51"/><path d="M889,1128L1073,1104L907,983Z" fill="#4d4f4f" stroke="#4d4f4f" stroke-width="1.51"/><path d="M1218,478L1611,278L1288,53Z" fill="#454748" stroke="#454748" stroke-width="1.51"/><path d="M1554,1077L1603,515L1218,478Z" fill="#4d4f4f" stroke="#4d4f4f" stroke-width="1.51"/><path d="M318,127L151,633L576,221Z" fill="#393c3e" stroke="#393c3e" stroke-width="1.51"/><path d="M637,953L521,1197L889,1128Z" fill="#4a4c4d" stroke="#4a4c4d" stroke-width="1.51"/><path d="M318,127L-11,460L151,633Z" fill="#393b3d" stroke="#393b3d" stroke-width="1.51"/><path d="M520,-58L275,14L318,127Z" fill="#35383a" stroke="#35383a" stroke-width="1.51"/><path d="M360,-272L275,14L520,-58Z" fill="#333639" stroke="#333639" stroke-width="1.51"/><path d="M1603,515L1611,278L1218,478Z" fill="#494b4b" stroke="#494b4b" stroke-width="1.51"/><path d="M1288,53L847,-319L745,-165Z" fill="#393c3e" stroke="#393c3e" stroke-width="1.51"/><path d="M1611,278L1473,-8L1288,53Z" fill="#444647" stroke="#444647" stroke-width="1.51"/><path d="M745,-165L588,-345L520,-58Z" fill="#35373a" stroke="#35373a" stroke-width="1.51"/><path d="M1150,-439L847,-319L1288,53Z" fill="#3a3c3e" stroke="#3a3c3e" stroke-width="1.51"/><path d="M889,1128L1151,1281L1073,1104Z" fill="#505152" stroke="#505152" stroke-width="1.51"/><path d="M205,1036L521,1197L637,953Z" fill="#47494a" stroke="#47494a" stroke-width="1.51"/><path d="M1073,1104L1554,1077L1218,478Z" fill="#4e4f50" stroke="#4e4f50" stroke-width="1.51"/><path d="M521,1197L1151,1281L889,1128Z" fill="#4f4f50" stroke="#4f4f50" stroke-width="1.51"/><path d="M847,-319L588,-345L745,-165Z" fill="#34373a" stroke="#34373a" stroke-width="1.51"/><path d="M151,633L205,1036L637,953Z" fill="#424446" stroke="#424446" stroke-width="1.51"/><path d="M-36,229L-11,460L318,127Z" fill="#35383b" stroke="#35383b" stroke-width="1.51"/><path d="M151,633L31,972L205,1036Z" fill="#404244" stroke="#404244" stroke-width="1.51"/><path d="M588,-345L360,-272L520,-58Z" fill="#333538" stroke="#333538" stroke-width="1.51"/><path d="M275,14L-36,229L318,127Z" fill="#34373a" stroke="#34373a" stroke-width="1.51"/><path d="M521,1197L354,1213L1151,1281Z" fill="#4d4e4f" stroke="#4d4e4f" stroke-width="1.51"/><path d="M205,1036L354,1213L521,1197Z" fill="#47494a" stroke="#47494a" stroke-width="1.51"/><path d="M1404,1240L1554,1077L1073,1104Z" fill="#535454" stroke="#535454" stroke-width="1.51"/><path d="M1852,94L1495,-286L1473,-8Z" fill="#434546" stroke="#434546" stroke-width="1.51"/><path d="M1603,515L1802,575L1611,278Z" fill="#4c4e4e" stroke="#4c4e4e" stroke-width="1.51"/><path d="M1554,1077L1802,575L1603,515Z" fill="#505152" stroke="#505152" stroke-width="1.51"/><path d="M1151,1281L1404,1240L1073,1104Z" fill="#535454" stroke="#535454" stroke-width="1.51"/><path d="M-161,106L-36,229L275,14Z" fill="#323538" stroke="#323538" stroke-width="1.51"/><path d="M1495,-286L1150,-439L1288,53Z" fill="#3d3f41" stroke="#3d3f41" stroke-width="1.51"/><path d="M847,-319L1150,-439L588,-345Z" fill="#35383a" stroke="#35383a" stroke-width="1.51"/><path d="M1473,-8L1495,-286L1288,53Z" fill="#404244" stroke="#404244" stroke-width="1.51"/><path d="M1852,94L1473,-8L1611,278Z" fill="#474849" stroke="#474849" stroke-width="1.51"/><path d="M205,1036L-77,1254L354,1213Z" fill="#454748" stroke="#454748" stroke-width="1.51"/><path d="M-11,460L31,972L151,633Z" fill="#3c3e40" stroke="#3c3e40" stroke-width="1.51"/><path d="M-77,1254L31,972L-567,810Z" fill="#3e4142" stroke="#3e4142" stroke-width="1.51"/><path d="M1890,142L1852,94L1611,278Z" fill="#494b4b" stroke="#494b4b" stroke-width="1.51"/><path d="M1802,575L1890,142L1611,278Z" fill="#4b4d4e" stroke="#4b4d4e" stroke-width="1.51"/><path d="M-391,272L-365,536L-11,460Z" fill="#343639" stroke="#343639" stroke-width="1.51"/><path d="M-8,-404L-161,106L275,14Z" fill="#2f3235" stroke="#2f3235" stroke-width="1.51"/><path d="M1151,1281L1754,1305L1404,1240Z" fill="#575757" stroke="#575757" stroke-width="1.51"/><path d="M1404,1240L1754,1305L1554,1077Z" fill="#585858" stroke="#585858" stroke-width="1.51"/><path d="M1554,1077L1961,1106L1802,575Z" fill="#555656" stroke="#555656" stroke-width="1.51"/><path d="M1802,575L1961,1106L1890,142Z" fill="#515253" stroke="#515253" stroke-width="1.51"/><path d="M31,972L-77,1254L205,1036Z" fill="#434446" stroke="#434446" stroke-width="1.51"/><path d="M354,1213L-77,1254L1151,1281Z" fill="#4a4c4d" stroke="#4a4c4d" stroke-width="1.51"/><path d="M1151,1281L-587,1288L1754,1305Z" fill="#4f5050" stroke="#4f5050" stroke-width="1.51"/><path d="M-365,536L31,972L-11,460Z" fill="#393c3e" stroke="#393c3e" stroke-width="1.51"/><path d="M1150,-439L-8,-404L588,-345Z" fill="#313437" stroke="#313437" stroke-width="1.51"/><path d="M588,-345L-8,-404L360,-272Z" fill="#2e3235" stroke="#2e3235" stroke-width="1.51"/><path d="M360,-272L-8,-404L275,14Z" fill="#2f3235" stroke="#2f3235" stroke-width="1.51"/><path d="M-391,272L-36,229L-161,106Z" fill="#313437" stroke="#313437" stroke-width="1.51"/><path d="M-391,272L-11,460L-36,229Z" fill="#343639" stroke="#343639" stroke-width="1.51"/><path d="M1754,1305L1961,1106L1554,1077Z" fill="#595a5a" stroke="#595a5a" stroke-width="1.51"/><path d="M-403,-81L-391,272L-161,106Z" fill="#2e3134" stroke="#2e3134" stroke-width="1.51"/><path d="M1150,-439L1778,-499L-8,-404Z" fill="#35383a" stroke="#35383a" stroke-width="1.51"/><path d="M1495,-286L1778,-499L1150,-439Z" fill="#3b3e40" stroke="#3b3e40" stroke-width="1.51"/><path d="M1852,94L1778,-499L1495,-286Z" fill="#414345" stroke="#414345" stroke-width="1.51"/><path d="M1890,142L1778,-499L1852,94Z" fill="#454748" stroke="#454748" stroke-width="1.51"/><path d="M-8,-404L-403,-81L-161,106Z" fill="#2c2f32" stroke="#2c2f32" stroke-width="1.51"/><path d="M-365,536L-567,810L31,972Z" fill="#393b3e" stroke="#393b3e" stroke-width="1.51"/><path d="M-391,272L-567,810L-365,536Z" fill="#343639" stroke="#343639" stroke-width="1.51"/><path d="M-479,-303L-567,810L-391,272Z" fill="#2f3235" stroke="#2f3235" stroke-width="1.51"/><path d="M-403,-81L-479,-303L-391,272Z" fill="#2b2e32" stroke="#2b2e32" stroke-width="1.51"/><path d="M-8,-404L-479,-303L-403,-81Z" fill="#292c2f" stroke="#292c2f" stroke-width="1.51"/><path d="M-567,810L-587,1288L-77,1254Z" fill="#3d3f41" stroke="#3d3f41" stroke-width="1.51"/><path d="M-77,1254L-587,1288L1151,1281Z" fill="#47494a" stroke="#47494a" stroke-width="1.51"/></svg>