<?xml version="1.0" standalone="no"?>
<!DOCTYPE svg PUBLIC "-//W3C//DTD SVG 20010904//EN"
 "http://www.w3.org/TR/2001/REC-SVG-20010904/DTD/svg10.dtd">
<svg version="1.0" xmlns="http://www.w3.org/2000/svg"
 width="85.000000pt" height="85.000000pt" viewBox="0 0 85.000000 85.000000"
 preserveAspectRatio="xMidYMid meet">
<metadata>
Created by potrace 1.11, written by Peter Selinger 2001-2013
</metadata>
<g transform="translate(0.000000,85.000000) scale(0.100000,-0.100000)"
fill="#000000" stroke="none">
<path d="M270 790 c0 -5 -9 -10 -20 -10 -11 0 -30 -6 -43 -12 -35 -20 -97 -81
-97 -95 0 -7 -3 -13 -8 -13 -21 0 -42 -133 -22 -145 17 -10 11 -62 -10 -100
-25 -44 -25 -62 -1 -74 18 -10 24 -30 37 -126 4 -22 10 -44 15 -49 5 -5 38 -9
74 -8 76 2 79 0 119 -80 29 -61 50 -73 61 -36 9 27 121 138 140 138 8 0 15 4
15 9 0 5 7 11 16 13 11 2 16 17 18 53 3 49 16 83 44 113 7 8 21 32 30 53 9 22
20 39 24 39 5 0 8 18 8 41 0 53 23 48 30 -7 5 -36 9 -40 40 -35 6 0 10 19 10
41 l0 40 40 0 c38 0 40 2 40 30 0 28 -2 30 -40 30 l-40 0 0 40 c0 36 -2 40
-25 40 -22 0 -25 -4 -25 -40 0 -36 -2 -40 -25 -40 -16 0 -25 6 -25 16 0 33
-98 144 -127 144 -7 0 -13 5 -13 10 0 6 -13 10 -29 10 -17 0 -33 5 -36 10 -3
6 -44 10 -91 10 -49 0 -84 -4 -84 -10z m177 -41 c65 -26 80 -36 121 -78 36
-38 42 -50 42 -88 0 -31 4 -43 15 -43 11 0 13 -8 9 -32 -15 -87 -57 -128 -131
-128 -32 0 -43 6 -61 30 -15 19 -31 30 -47 30 -18 0 -25 5 -25 20 0 11 -4 20
-10 20 -5 0 -10 7 -10 15 0 20 -63 45 -115 45 -63 0 -90 26 -89 83 1 34 7 51
27 71 14 14 33 26 42 26 8 0 15 4 15 8 0 26 165 41 217 21z"/>
</g>
</svg>
